<svg width="126" height="32" viewBox="0 0 126 32" fill="none" xmlns="http://www.w3.org/2000/svg">
<g opacity="0.3">
<path d="M19.176 20.8082V22.0002H12.968V20.8082H15.4V13.2802C15.4 13.0402 15.408 12.7922 15.424 12.5362L13.472 14.1922C13.3973 14.2509 13.3227 14.2882 13.248 14.3042C13.1733 14.3202 13.1013 14.3229 13.032 14.3122C12.968 14.3016 12.9093 14.2802 12.856 14.2482C12.808 14.2109 12.768 14.1736 12.736 14.1362L12.248 13.4562L15.688 10.4882H16.96V20.8082H19.176Z" fill="white"/>
<circle cx="16" cy="16.0002" r="15.5" stroke="white"/>
</g>
<g opacity="0.3">
<path d="M65.888 20.5201C66.0587 20.5201 66.192 20.5708 66.288 20.6721C66.384 20.7681 66.432 20.8961 66.432 21.0561V22.0001H58.72V21.4641C58.72 21.3575 58.7413 21.2455 58.784 21.1281C58.8267 21.0055 58.8987 20.8961 59 20.8001L62.632 17.1601C62.936 16.8561 63.2107 16.5628 63.456 16.2801C63.7013 15.9975 63.9093 15.7175 64.08 15.4401C64.2507 15.1575 64.3813 14.8695 64.472 14.5761C64.568 14.2828 64.616 13.9735 64.616 13.6481C64.616 13.3281 64.5653 13.0481 64.464 12.8081C64.3627 12.5628 64.224 12.3601 64.048 12.2001C63.872 12.0401 63.664 11.9201 63.424 11.8401C63.184 11.7601 62.9253 11.7201 62.648 11.7201C62.3707 11.7201 62.1147 11.7601 61.88 11.8401C61.6507 11.9201 61.4453 12.0321 61.264 12.1761C61.0827 12.3201 60.9307 12.4908 60.808 12.6881C60.6853 12.8855 60.5973 13.0988 60.544 13.3281C60.4693 13.5308 60.3733 13.6668 60.256 13.7361C60.144 13.8055 59.9787 13.8215 59.76 13.7841L58.944 13.6401C59.0187 13.1068 59.1653 12.6375 59.384 12.2321C59.6027 11.8268 59.8773 11.4881 60.208 11.2161C60.5387 10.9388 60.9173 10.7308 61.344 10.5921C61.776 10.4535 62.24 10.3841 62.736 10.3841C63.2373 10.3841 63.6987 10.4588 64.12 10.6081C64.5467 10.7521 64.9147 10.9628 65.224 11.2401C65.5333 11.5175 65.776 11.8561 65.952 12.2561C66.128 12.6508 66.216 13.0988 66.216 13.6001C66.216 14.0268 66.152 14.4241 66.024 14.7921C65.9013 15.1548 65.7307 15.5015 65.512 15.8321C65.2987 16.1628 65.048 16.4855 64.76 16.8001C64.4773 17.1095 64.176 17.4241 63.856 17.7441L60.944 20.7201C61.168 20.6615 61.392 20.6135 61.616 20.5761C61.8453 20.5388 62.0613 20.5201 62.264 20.5201H65.888Z" fill="white"/>
<circle cx="63" cy="16.0001" r="15.5" stroke="white"/>
</g>
<path d="M105.992 13.64C106.072 13.1067 106.221 12.6373 106.44 12.232C106.659 11.8267 106.933 11.488 107.264 11.216C107.595 10.9387 107.973 10.7307 108.4 10.592C108.832 10.4533 109.296 10.384 109.792 10.384C110.288 10.384 110.744 10.456 111.16 10.6C111.576 10.7387 111.931 10.9387 112.224 11.2C112.523 11.456 112.755 11.7653 112.92 12.128C113.085 12.4907 113.168 12.8907 113.168 13.328C113.168 13.696 113.123 14.0213 113.032 14.304C112.941 14.5867 112.811 14.8347 112.64 15.048C112.475 15.2613 112.272 15.4427 112.032 15.592C111.792 15.736 111.523 15.856 111.224 15.952C111.955 16.1547 112.504 16.4853 112.872 16.944C113.24 17.3973 113.424 17.9733 113.424 18.672C113.424 19.2107 113.323 19.696 113.12 20.128C112.917 20.5547 112.64 20.9173 112.288 21.216C111.936 21.5093 111.525 21.736 111.056 21.896C110.592 22.0507 110.096 22.128 109.568 22.128C108.965 22.128 108.448 22.056 108.016 21.912C107.584 21.7627 107.216 21.5573 106.912 21.296C106.608 21.0293 106.355 20.712 106.152 20.344C105.955 19.9707 105.787 19.5627 105.648 19.12L106.328 18.832C106.504 18.7573 106.675 18.736 106.84 18.768C107.005 18.8 107.125 18.8933 107.2 19.048C107.28 19.208 107.371 19.3893 107.472 19.592C107.579 19.7893 107.72 19.9787 107.896 20.16C108.072 20.336 108.291 20.4853 108.552 20.608C108.819 20.7307 109.152 20.792 109.552 20.792C109.936 20.792 110.272 20.7307 110.56 20.608C110.848 20.48 111.088 20.3173 111.28 20.12C111.472 19.9173 111.616 19.6933 111.712 19.448C111.808 19.2027 111.856 18.96 111.856 18.72C111.856 18.4213 111.819 18.1467 111.744 17.896C111.669 17.6453 111.525 17.432 111.312 17.256C111.104 17.0747 110.813 16.9333 110.44 16.832C110.067 16.7307 109.581 16.68 108.984 16.68V15.544C109.475 15.5387 109.888 15.488 110.224 15.392C110.565 15.296 110.84 15.1627 111.048 14.992C111.256 14.8213 111.405 14.6187 111.496 14.384C111.592 14.1493 111.64 13.888 111.64 13.6C111.64 13.2853 111.592 13.0107 111.496 12.776C111.4 12.5413 111.264 12.3467 111.088 12.192C110.917 12.032 110.712 11.9147 110.472 11.84C110.237 11.76 109.981 11.72 109.704 11.72C109.427 11.72 109.171 11.76 108.936 11.84C108.701 11.92 108.493 12.032 108.312 12.176C108.131 12.32 107.979 12.4907 107.856 12.688C107.733 12.8853 107.645 13.0987 107.592 13.328C107.517 13.5307 107.421 13.6667 107.304 13.736C107.192 13.8053 107.029 13.8213 106.816 13.784L105.992 13.64Z" fill="white"/>
<circle cx="110" cy="16" r="15.5" stroke="white"/>
</svg>
